<?xml version="1.0" encoding="utf-8"?>
<!-- Generator: Adobe Illustrator 19.0.0, SVG Export Plug-In . SVG Version: 6.00 Build 0)  -->
<svg version="1.1" id="layer" xmlns="http://www.w3.org/2000/svg" xmlns:xlink="http://www.w3.org/1999/xlink" x="0px" y="0px"
	 viewBox="-153 -46 652 652" style="enable-background:new -153 -46 652 652;" xml:space="preserve">
<path d="M-67.1,255.6l-1,0.5c-2.8-3.5-5.5-6.4-8-8.9c-2.5-2.5-5-4.3-7.4-5.4c-1.2-0.5-3.3-1-6.3-1.4c-3-0.4-6.6-0.6-10.6-0.6
	c-0.7,0-1.5,0-2.4,0.1c-0.9,0-1.7,0.1-2.6,0.1c-0.8,0-1.6,0.1-2.3,0.1c-0.7,0-1.2,0.1-1.6,0.1c-0.1,0.4-0.2,0.8-0.3,1.2
	c-0.1,0.4-0.2,0.9-0.3,1.4c-0.1,0.5-0.1,1.2-0.2,2.1c-0.1,0.9-0.1,1.9-0.2,3.1c-0.1,2.4-0.1,5-0.2,7.8c0,2.8-0.1,5.5-0.1,8v9.7h1.8
	c1.1,0,2.3,0,3.6-0.1c1.3-0.1,2.7-0.2,4.2-0.3c1.4-0.1,2.6-0.3,3.6-0.5c2.5-0.5,4.4-1.3,5.8-2.1s2.6-1.9,3.4-3.2s1.4-2.6,1.7-4
	c0.3-1.5,0.6-3,0.9-4.8h1.2v32.9h-1.2c-0.5-2.2-1.3-4.5-2.4-6.9s-2.3-4.3-3.7-5.6c-1.3-1.2-2.7-2-4.2-2.6c-1.5-0.6-3.2-0.9-5.2-1.1
	c-1-0.1-1.9-0.1-2.7-0.2c-0.8,0-1.5-0.1-2.2-0.1h-4.9v12.7c0,1.9,0,3.7,0.1,5.3s0.1,3,0.1,4.1c0.1,2.2,0.2,4.2,0.4,6.2
	c0.2,1.9,0.6,3.4,1.2,4.3c0.6,1,1.7,1.7,3.1,2.2c1.5,0.5,3.6,0.8,6.4,1v1H-132v-1c1.7-0.3,3.3-0.7,4.8-1.3c1.5-0.6,2.7-1.5,3.6-2.6
	c0.3-0.4,0.6-1,0.8-1.8c0.2-0.8,0.4-1.7,0.6-2.7c0.2-1,0.3-2.1,0.4-3.2c0.1-1.1,0.1-2.2,0.1-3.3c0-1,0-2.2,0.1-3.9
	c0-1.6,0.1-3.4,0.1-5.4c0-1.9,0.1-3.9,0.1-6V255c0-1.2,0-2.5-0.1-3.8c0-1.3-0.1-2.5-0.2-3.7c-0.1-1.2-0.3-2.2-0.5-3.1
	c-0.2-0.9-0.6-1.6-1-2c-1-1.1-2.1-1.8-3.3-2.1c-1.2-0.3-2.7-0.6-4.5-0.9v-1h57L-67.1,255.6z M45,312v-1c0.2,0,0.7-0.1,1.5-0.2
	c0.8-0.1,1.6-0.4,2.5-0.7c0.9-0.3,1.6-0.8,2.3-1.4c0.6-0.6,1-1.4,1-2.4c0-0.6-0.2-1.6-0.6-3c-0.4-1.4-0.9-3.1-1.6-5.1
	c-0.7-2-1.5-4.2-2.4-6.7c-0.9-2.5-1.8-5-2.9-7.7H17.5c-1,2.6-2,5.1-3,7.4c-1,2.4-1.9,4.7-2.9,7.1c-1.4,3.7-2.2,6.3-2.2,7.8
	c0,0.9,0.3,1.6,0.8,2.2c0.5,0.6,1.2,1.1,2.1,1.4c0.9,0.4,1.8,0.6,2.8,0.8c1,0.2,1.9,0.3,2.8,0.5v1H-3.8v-1.1
	c1.8-0.2,3.3-0.7,4.6-1.4s2-1.3,2.2-1.5c0.5-0.5,1.3-1.6,2.4-3.4c1.1-1.8,2.4-4.4,4-7.9c1.4-3.2,3-6.8,4.8-10.9
	c1.8-4.1,3.6-8.3,5.5-12.6s3.7-8.7,5.6-13.1c1.8-4.4,3.6-8.5,5.2-12.3l-1-2.2c1.2-0.5,2.3-1.2,3.3-1.9c1-0.7,1.9-1.5,2.6-2.4
	c0.8-0.8,1.4-1.6,1.9-2.4c0.5-0.7,0.9-1.4,1.2-1.8h0.8c2.1,5.7,4.1,11,6.1,16.1c1.9,5.1,3.7,10,5.5,14.7s3.4,9.2,5.1,13.6
	c1.6,4.4,3.3,8.7,4.9,13c0.8,2.1,1.5,3.9,2.1,5.3c0.6,1.4,1.4,3,2.2,4.8c0.1,0.3,0.4,0.7,0.9,1.4c0.5,0.7,1.1,1.4,1.9,2.1
	c0.8,0.7,1.8,1.3,2.9,1.9c1.2,0.5,2.5,0.9,4.1,0.9v1.2H45z M31.6,250.1c-0.4,0.9-1,2.3-1.8,4.2c-0.8,1.9-1.8,4.2-2.9,6.9
	c-1.2,2.7-2.4,5.8-3.8,9.2c-1.4,3.4-2.9,7.2-4.6,11.2H44c-1.2-3.1-2.3-6.1-3.5-9.2c-1.2-3.1-2.4-6-3.5-8.8c-1.1-2.8-2.2-5.4-3.1-7.8
	C32.9,253.5,32.2,251.6,31.6,250.1z M175.8,312h-31.1v-1c1.7-0.3,3.3-0.7,4.8-1.3c1.5-0.6,2.7-1.5,3.7-2.7c0.3-0.4,0.6-1,0.8-1.7
	s0.3-1.6,0.4-2.7c0.1-1,0.2-2.1,0.2-3.2c0-1.1,0.1-2.2,0.1-3.3c0-1,0-2.2,0.1-3.9c0-1.6,0.1-3.4,0.1-5.4c0-1.9,0.1-3.9,0.1-6v-29.5
	c0-1.2-0.1-2.4-0.2-3.4c-0.1-1.1-0.3-2-0.5-2.9c-0.2-0.9-0.5-1.5-0.9-2c-1-1.2-2.1-2-3.5-2.5c-1.4-0.5-3-0.9-4.8-1.1v-1h30.7v1
	c-1.4,0.2-3,0.6-4.6,1.1s-2.9,1.6-3.8,3.3c-0.6,1.2-0.9,2.6-1,4.4c0,1.8-0.1,3.4-0.2,5c0,1.7,0,3.4-0.1,5.1c0,1.7-0.1,3.4-0.1,5.1
	v34.2c0,2,0,3.9,0.1,5.7c0.1,1.8,0.4,3.1,0.9,3.9c0.8,1.2,2.1,2,3.9,2.7c1.8,0.6,3.4,1,4.8,1.1V312z M331.1,312h-21
	c-0.6-0.6-1.1-1.1-1.3-1.4c-0.3-0.3-0.6-0.7-0.9-1.1c-0.3-0.4-0.8-1-1.3-1.8c-0.5-0.8-1.3-2-2.4-3.5c-1.3-1.9-2.4-3.6-3.4-5.2
	c-1-1.5-2-3-3-4.5c-1-1.5-2.1-3-3.3-4.5c-1.2-1.5-2.6-3.3-4.3-5.2c-1.4-1.6-2.9-3-4.5-4.4c-1.6-1.4-3.3-2.2-5.1-2.6
	c-1.3-0.3-2.3-0.4-3-0.4c-0.6,0-1.4,0-2.4-0.1v11.5c0,3.3,0,6,0.1,8.3c0.1,2.2,0.1,4.1,0.2,5.6c0.1,1.6,0.4,2.9,1.1,3.9
	c0.5,0.9,1.6,1.8,3.2,2.7c1.6,0.9,3.8,1.4,6.6,1.6v1h-32.8v-1c1.7-0.3,3.4-0.7,4.9-1.2c1.6-0.5,2.8-1.4,3.7-2.5
	c0.3-0.4,0.6-1,0.8-1.8c0.2-0.8,0.4-1.7,0.5-2.8c0.1-1,0.2-2.1,0.3-3.3c0.1-1.2,0.1-2.3,0.1-3.4c0-1,0-2.2,0.1-3.9
	c0-1.6,0.1-3.4,0.1-5.4c0-1.9,0.1-3.9,0.1-6V255c0-1.2,0-2.5-0.1-3.7c0-1.3-0.1-2.5-0.2-3.6c-0.1-1.1-0.3-2.1-0.5-3.1
	c-0.2-0.9-0.6-1.6-1-2c-1-1.1-2.2-1.8-3.4-2.2c-1.3-0.4-2.8-0.7-4.7-1v-1h4.2c2.3,0,5,0,7.9-0.1c2.9,0,5.9-0.1,8.8-0.1h7.2
	c4.6,0,8.7,0.1,12.2,0.4c3.6,0.3,6.8,1.2,9.7,2.8c3,1.6,5.4,3.7,7.3,6.4c1.8,2.7,2.8,6.1,2.8,10.2c0,2.5-0.5,4.8-1.4,6.8
	c-0.9,2-2.2,3.8-3.7,5.3c-1.5,1.5-3.3,2.8-5.4,3.9c-2.1,1.1-4.2,2-6.5,2.8v0.3c1.2,0.6,2.3,1.5,3.4,2.7c1.1,1.2,2.2,2.5,3.2,3.9
	c1.8,2.6,3.7,5.4,5.8,8.4c2.1,3,3.9,5.7,5.6,8c2.5,3.5,5,6.1,7.4,7.8s5.2,2.7,8.4,3.2V312z M302.5,257.4c0-3.4-0.9-6.4-2.6-9.1
	c-1.7-2.7-4.2-4.8-7.5-6.3c-1.6-0.7-3.4-1.3-5.2-1.6c-1.8-0.3-3.7-0.5-5.7-0.5c-1.4,0-2.6,0-3.5,0.1c-0.9,0.1-1.6,0.1-2.1,0.2
	c-0.1,0.4-0.1,0.8-0.2,1.1c-0.1,0.3-0.1,0.7-0.2,1.2c0,0.5-0.1,1.1-0.1,2c0,0.9-0.1,2.1-0.2,3.6c-0.1,2.4-0.1,5.1-0.2,8.1
	c0,3-0.1,5.9-0.1,8.7V276c2.8,0,5.4-0.1,7.8-0.4c2.4-0.2,4.8-0.7,7-1.5c2.2-0.7,4.1-1.6,5.6-2.8c1.6-1.2,2.9-2.5,3.8-3.9
	c1-1.5,1.7-3,2.2-4.8S302.5,259.3,302.5,257.4z M468,292.5l-5.1,19.5h-62.8v-1c1.7-0.3,3.3-0.7,4.8-1.3c1.5-0.6,2.7-1.5,3.6-2.6
	c0.3-0.4,0.6-1,0.8-1.8c0.2-0.8,0.4-1.7,0.6-2.7c0.2-1,0.3-2.1,0.4-3.2c0.1-1.1,0.1-2.2,0.1-3.3c0-1,0-2.2,0.1-3.9s0.1-3.4,0.1-5.4
	c0-1.9,0.1-3.9,0.1-6c0-2.1,0-4.1,0-5.9V255c0-1.2,0-2.5-0.1-3.8c0-1.3-0.1-2.5-0.2-3.7c-0.1-1.2-0.3-2.2-0.5-3.1
	c-0.2-0.9-0.6-1.6-1-2c-1-1.1-2.1-1.8-3.3-2.1c-1.2-0.3-2.7-0.6-4.5-0.9v-1h56.6l7,16.9l-1,0.5c-5.5-6.9-10.7-11.5-15.6-13.9
	c-1.2-0.5-3.3-1-6.5-1.4c-3.1-0.4-7-0.6-11.5-0.6c-1.4,0-2.9,0.1-4.5,0.2c-1.5,0.1-2.6,0.2-3.3,0.4c-0.1,1.1-0.3,3.3-0.4,6.7
	c-0.1,3.4-0.2,7.4-0.2,11.9c0,2.6,0,4.8,0,6.5s0,3.2,0.1,4.3c0,1.1,0.1,2,0.1,2.6c0,0.5,0,0.9,0,1.1c0.3,0,1,0,2.1,0
	c1,0,2.2,0,3.5-0.1s2.7-0.2,4-0.3s2.4-0.3,3.3-0.5c2.1-0.5,3.8-1.1,5.1-1.9s2.5-1.8,3.3-3c0.9-1.2,1.5-2.5,2.1-4s1-3.3,1.4-5.2h1.2
	v32.2h-1.2c-0.5-2.2-1.4-4.4-2.5-6.7c-1.1-2.3-2.3-4.1-3.5-5.2c-1.1-1-2.4-1.7-3.9-2.4c-1.5-0.6-3.3-1-5.4-1.1
	c-1-0.1-1.9-0.1-2.6-0.2s-1.4-0.1-2.1-0.1c-0.6,0-1.3,0-2.1,0c-0.7,0-1.6,0-2.7,0c-0.1,1-0.2,2.4-0.2,4.2s0,3.7,0,5.7
	c0,0.9,0,1.9,0,3.1c0,1.2,0,2.3,0,3.5c0,1.1,0,2.1,0.1,3.1c0,1,0.1,1.8,0.1,2.5c0.1,2.2,0.2,4.2,0.4,6.2c0.2,1.9,0.6,3.4,1.2,4.3
	c0.6,1,2.1,1.6,4.4,2c2.3,0.4,4.9,0.6,7.6,0.6c1.2,0,2.6,0,4.5-0.1c1.8-0.1,3.7-0.2,5.7-0.5c2.2-0.3,4.2-0.8,6.1-1.6
	c1.8-0.8,3.6-1.9,5.3-3.3c1.7-1.4,3.4-3.2,5-5.3c1.6-2.1,3.3-4.6,5-7.5L468,292.5z"/>
</svg>
