<?xml version="1.0" encoding="utf-8"?>
<!-- Generator: Adobe Illustrator 25.0.1, SVG Export Plug-In . SVG Version: 6.00 Build 0)  -->
<svg version="1.0" id="Layer_1" xmlns="http://www.w3.org/2000/svg" xmlns:xlink="http://www.w3.org/1999/xlink" x="0px" y="0px"
	 viewBox="0 0 264 195" style="enable-background:new 0 0 264 195;" xml:space="preserve">
<style type="text/css">
	.st0{fill:none;}
</style>
<path d="M61.9,91.9L61.6,92c-0.7-0.9-1.5-1.8-2.4-2.7c-0.6-0.6-1.4-1.2-2.2-1.6c-0.6-0.2-1.2-0.4-1.9-0.4c-1.1-0.1-2.1-0.2-3.2-0.2
	h-0.7h-0.8h-0.7h-0.5c0,0.1,0,0.2-0.1,0.4c0,0.1-0.1,0.3-0.1,0.4c0,0.2,0,0.4-0.1,0.6s0,0.6-0.1,0.9c0,0.7,0,1.5-0.1,2.3
	c0,0.8,0,1.6,0,2.4v2.9h0.6h1.1l1.2-0.1c0.4,0,0.7-0.1,1.1-0.1c0.6-0.1,1.2-0.3,1.8-0.6c0.4-0.2,0.7-0.6,1-0.9
	c0.2-0.4,0.4-0.8,0.5-1.2c0.1-0.4,0.2-0.9,0.3-1.4h0.4v9.8h-0.4c-0.2-0.7-0.4-1.4-0.7-2.1c-0.2-0.6-0.6-1.2-1.1-1.7
	c-0.4-0.3-0.8-0.6-1.2-0.8c-0.5-0.2-1-0.3-1.6-0.3h-0.8h-0.6H49v3.8c0,0.6,0,1.1,0,1.6s0,0.9,0,1.2c0,0.7,0,1.3,0.1,1.8
	c0,0.5,0.1,0.9,0.4,1.3c0.2,0.3,0.6,0.5,0.9,0.7c0.6,0.2,1.3,0.3,1.9,0.3v0.3h-9.8v-0.3c0.5-0.1,1-0.2,1.4-0.4
	c0.4-0.2,0.8-0.4,1.1-0.8c0.1-0.2,0.2-0.3,0.2-0.5c0.1-0.3,0.1-0.5,0.2-0.8c0.1-0.3,0.1-0.7,0.1-1c0-0.3,0-0.7,0-1
	c0-0.3,0-0.7,0-1.2s0-1,0-1.6s0-1.2,0-1.8v-7.7c0-0.4,0-0.7,0-1.1s0-0.8-0.1-1.1c0-0.3-0.1-0.6-0.1-0.9c0-0.2-0.1-0.4-0.3-0.6
	c-0.3-0.3-0.6-0.5-1-0.6c-0.4-0.1-0.8-0.2-1.3-0.3v-0.3h17L61.9,91.9z M95.3,108.7v-0.3l0.4-0.1c0.2,0,0.5-0.1,0.7-0.2
	c0.3-0.1,0.5-0.2,0.7-0.4c0.2-0.2,0.3-0.4,0.3-0.7c0-0.3-0.1-0.6-0.2-0.9c-0.1-0.4-0.3-0.9-0.5-1.5s-0.4-1.3-0.7-2s-0.5-1.5-0.9-2.3
	h-8.1c-0.3,0.8-0.6,1.5-0.9,2.2l-0.9,2.1c-0.3,0.7-0.6,1.5-0.6,2.3c0,0.2,0.1,0.5,0.2,0.7c0.2,0.2,0.4,0.3,0.6,0.4
	c0.3,0.1,0.5,0.2,0.8,0.2l0.8,0.1v0.3h-6.5v-0.3c0.5,0,0.9-0.2,1.4-0.4c0.2-0.1,0.5-0.3,0.7-0.5c0.3-0.3,0.5-0.6,0.7-1
	c0.4-0.8,0.8-1.5,1.2-2.3c0.4-1,0.9-2,1.4-3.3s1.1-2.5,1.6-3.8s1.1-2.6,1.7-3.9s1.1-2.6,1.6-3.7l-0.3-0.7c0.4-0.2,0.7-0.3,1-0.6
	c0.3-0.2,0.5-0.4,0.8-0.7c0.2-0.2,0.4-0.5,0.6-0.7c0.2-0.2,0.3-0.4,0.4-0.6h0.2c0.6,1.7,1.2,3.3,1.8,4.8c0.6,1.5,1.1,3,1.6,4.4
	l1.5,4.1c0.5,1.3,1,2.6,1.5,3.9c0.2,0.5,0.4,1.1,0.6,1.6l0.7,1.4c0.1,0.1,0.2,0.3,0.3,0.4c0.2,0.2,0.4,0.4,0.6,0.6
	c0.3,0.2,0.6,0.4,0.9,0.6c0.4,0.2,0.8,0.3,1.2,0.3v0.4L95.3,108.7z M91.3,90.2c-0.1,0.3-0.3,0.7-0.5,1.2s-0.5,1.3-0.9,2.1
	c-0.3,0.8-0.7,1.7-1.1,2.8l-1.4,3.3H95c-0.3-0.9-0.7-1.8-1.1-2.7s-0.7-1.8-1-2.6c-0.3-0.8-0.6-1.6-0.9-2.3L91.3,90.2z M134.3,108.7
	h-9.2v-0.3c0.5-0.1,1-0.2,1.4-0.4c0.4-0.2,0.8-0.5,1.1-0.8c0.1-0.1,0.2-0.3,0.2-0.5c0.1-0.3,0.1-0.5,0.1-0.8c0-0.3,0-0.6,0.1-1
	c0-0.3,0-0.7,0-1s0-0.7,0-1.2s0-1,0-1.6s0-1.2,0-1.8v-8.8c0-0.4,0-0.7,0-1c0-0.3-0.1-0.6-0.1-0.8c0-0.2-0.1-0.4-0.3-0.6
	c-0.3-0.3-0.6-0.6-1.1-0.8c-0.5-0.2-0.9-0.3-1.4-0.3v-0.3h9.2v0.3c-0.5,0.1-0.9,0.2-1.4,0.3c-0.5,0.2-0.9,0.5-1.1,1
	c-0.2,0.4-0.3,0.9-0.3,1.3c0,0.5,0,1,0,1.5c-0.1,0.5,0,1,0,1.5s0,1,0,1.5v10.2c0,0.6,0,1.2,0,1.7c0,0.4,0.1,0.8,0.3,1.2
	c0.3,0.4,0.7,0.7,1.2,0.8c0.5,0.2,0.9,0.3,1.4,0.3L134.3,108.7z M180.6,108.7h-6.3l-0.4-0.4l-0.3-0.3c-0.1-0.2-0.3-0.4-0.4-0.5
	c-0.1-0.2-0.4-0.6-0.7-1c-0.4-0.6-0.7-1.1-1-1.5s-0.6-0.9-0.9-1.4s-0.6-0.9-1-1.3s-0.8-1-1.3-1.5c-0.4-0.5-0.9-0.9-1.3-1.3
	c-0.4-0.4-1-0.6-1.5-0.8c-0.3-0.1-0.6-0.1-0.9-0.1H164v3.4c0,1,0,1.8,0,2.5s0,1.2,0.1,1.7c0,0.4,0.1,0.8,0.3,1.2
	c0.3,0.4,0.6,0.6,1,0.8c0.6,0.3,1.3,0.5,2,0.5v0.3h-9.8v-0.3c0.5-0.1,1-0.2,1.5-0.4c0.4-0.1,0.8-0.4,1.1-0.7
	c0.1-0.2,0.2-0.4,0.2-0.6c0.1-0.3,0.1-0.6,0.1-0.8c0-0.3,0.1-0.6,0.1-1s0-0.7,0-1s0-0.7,0-1.2s0-1,0-1.6s0-1.2,0-1.8v-7.8
	c0-0.4,0-0.7,0-1.1s0-0.7-0.1-1.1c0-0.3-0.1-0.6-0.1-0.9c0-0.2-0.1-0.4-0.3-0.6c-0.3-0.3-0.6-0.5-1-0.7c-0.5-0.1-0.9-0.2-1.4-0.3
	v-0.3h1.3h2.4h4.8c1.4,0,2.6,0,3.6,0.1c1,0.1,2,0.3,2.9,0.8c0.9,0.4,1.6,1.1,2.2,1.9c0.6,0.9,0.9,1.9,0.8,3c0,0.7-0.1,1.4-0.4,2
	c-0.3,0.6-0.6,1.1-1.1,1.6c-0.5,0.5-1,0.9-1.6,1.2c-0.6,0.3-1.3,0.6-1.9,0.8v0.1c0.4,0.2,0.7,0.5,1,0.8c0.4,0.4,0.7,0.7,1,1.2
	c0.5,0.8,1.1,1.6,1.7,2.5s1.2,1.7,1.7,2.4c0.6,0.9,1.3,1.7,2.2,2.3c0.8,0.5,1.6,0.8,2.5,0.9L180.6,108.7z M172.1,92.4
	c0-1-0.2-1.9-0.8-2.7c-0.5-0.8-1.3-1.5-2.2-1.9c-0.5-0.2-1-0.4-1.5-0.5c-0.6-0.1-1.1-0.2-1.7-0.2c-0.4,0-0.8,0-1,0l-0.6,0.1
	c0,0.1,0,0.2-0.1,0.3c0,0.1,0,0.2,0,0.3c0,0.1,0,0.3,0,0.6s0,0.6-0.1,1.1c0,0.7,0,1.5,0,2.4s0,1.8,0,2.6v3.4c0.8,0,1.6,0,2.3-0.1
	c0.7-0.1,1.4-0.2,2.1-0.4c0.6-0.2,1.2-0.5,1.7-0.8c0.9-0.6,1.5-1.6,1.8-2.6C172.1,93.4,172.2,92.9,172.1,92.4L172.1,92.4z
	 M221.5,102.9l-1.5,5.8h-18.8v-0.3c0.5-0.1,1-0.2,1.4-0.4c0.4-0.2,0.8-0.4,1.1-0.8c0.1-0.2,0.2-0.3,0.2-0.5c0.1-0.2,0.1-0.5,0.2-0.8
	c0.1-0.3,0.1-0.7,0.1-1c0-0.3,0-0.7,0-1c0-0.3,0-0.7,0-1.2s0-1,0-1.6s0-1.2,0-1.8v-7.7c0-0.4,0-0.7,0-1.1s0-0.8-0.1-1.1
	c0-0.3-0.1-0.6-0.2-0.9c0-0.2-0.1-0.4-0.3-0.6c-0.3-0.3-0.6-0.5-1-0.6c-0.3-0.1-0.8-0.2-1.3-0.3v-0.3h16.9l2.1,5l-0.3,0.2
	c-1.2-1.7-2.8-3.1-4.6-4.1c-0.6-0.2-1.3-0.4-1.9-0.4c-1.1-0.1-2.3-0.2-3.4-0.2c-0.4,0-0.9,0-1.3,0c-0.3,0-0.7,0.1-1,0.1
	c0,0.3-0.1,1-0.1,2s-0.1,2.2-0.1,3.5v1.9c0,0.5,0,1,0,1.3s0,0.6,0,0.8v0.3h0.6h1.1l1.2-0.1c0.3,0,0.7-0.1,1-0.1
	c0.5-0.1,1.1-0.3,1.5-0.6c0.4-0.2,0.7-0.5,1-0.9c0.3-0.4,0.5-0.8,0.6-1.2c0.2-0.5,0.3-1,0.4-1.5h0.4v9.6H215c-0.2-0.7-0.4-1.4-0.8-2
	c-0.3-0.6-0.6-1.1-1.1-1.6c-0.4-0.3-0.8-0.5-1.2-0.7c-0.5-0.2-1.1-0.3-1.6-0.3h-0.8h-0.6h-1.4c0,0.4-0.1,0.8-0.1,1.2v3.7
	c0,0.3,0,0.6,0,0.9s0,0.5,0,0.8c0,0.7,0.1,1.3,0.1,1.8c0,0.5,0.1,0.9,0.4,1.3c0.3,0.4,0.8,0.6,1.3,0.6c0.8,0.1,1.5,0.2,2.3,0.2h1.3
	c0.5,0,1.1-0.1,1.7-0.2c0.6-0.1,1.2-0.2,1.8-0.5c0.6-0.2,1.1-0.6,1.6-1c0.5-0.5,1-1,1.5-1.6c0.5-0.7,1-1.5,1.5-2.2L221.5,102.9z"/>
<rect x="35" y="80" class="st0" width="194" height="35"/>
</svg>
